<?xml version="1.0" encoding="utf-8"?>
<!-- Generator: Adobe Illustrator 21.0.0, SVG Export Plug-In . SVG Version: 6.00 Build 0)  -->
<svg version="1.1" id="Layer_1" xmlns="http://www.w3.org/2000/svg" xmlns:xlink="http://www.w3.org/1999/xlink" x="0px" y="0px"
	 viewBox="0 0 170 170" style="enable-background:new 0 0 170 170;" xml:space="preserve">
<style type="text/css">
	.st0{fill:#FFFFFF;}
	.st1{fill:none;stroke:#FFFFFF;stroke-width:6;stroke-miterlimit:10;}
</style>
<g>
	<g>
		<path class="st0" d="M85,6c43.6,0,79,35.4,79,79s-35.4,79-79,79S6,128.6,6,85S41.4,6,85,6 M85,0C38.1,0,0,38.1,0,85s38.1,85,85,85
			s85-38.1,85-85S131.9,0,85,0L85,0z"/>
	</g>
	<polyline class="st1" points="74.7,39 79.8,25.1 93.6,30.3 	"/>
	<ellipse transform="matrix(0.3705 -0.9289 0.9289 0.3705 -73.1082 126.1345)" class="st1" cx="56.5" cy="117" rx="16" ry="16"/>
	<g>
		<line class="st1" x1="104.4" y1="105.2" x2="128.1" y2="128.8"/>
		<line class="st1" x1="128.1" y1="105.2" x2="104.4" y2="128.8"/>
	</g>
	<g>
		<line class="st1" x1="113.6" y1="56" x2="137.3" y2="79.7"/>
		<line class="st1" x1="137.3" y1="56" x2="113.6" y2="79.7"/>
	</g>
	<g>
		<line class="st1" x1="37.8" y1="51.2" x2="61.5" y2="74.9"/>
		<line class="st1" x1="61.5" y1="51.2" x2="37.8" y2="74.9"/>
	</g>
	<path class="st1" d="M79.8,25.1c0,0,12.2,17.9,10.9,40.7c-1.6,29.2-21.3,41.6-21.3,41.6"/>
</g>
</svg>
