<?xml version="1.0" encoding="utf-8"?>
<!-- Generator: Adobe Illustrator 21.0.0, SVG Export Plug-In . SVG Version: 6.00 Build 0)  -->
<svg version="1.1" id="Layer_1" xmlns="http://www.w3.org/2000/svg" xmlns:xlink="http://www.w3.org/1999/xlink" x="0px" y="0px"
	 viewBox="0 0 170 170" style="enable-background:new 0 0 170 170;" xml:space="preserve">
<style type="text/css">
	.st0{fill:none;stroke:#FFFFFF;stroke-width:6;stroke-miterlimit:10;}
	.st1{fill:#FFFFFF;}
</style>
<g>
	<ellipse transform="matrix(0.3705 -0.9289 0.9289 0.3705 -52.9671 189.1655)" class="st0" cx="113.1" cy="133.7" rx="8" ry="8"/>
	<ellipse transform="matrix(0.3705 -0.9289 0.9289 0.3705 -78.2591 131.5337)" class="st0" cx="57.9" cy="123.5" rx="16" ry="16"/>
	<ellipse transform="matrix(0.3705 -0.9289 0.9289 0.3705 -56.7296 88.3205)" class="st0" cx="36.8" cy="86" rx="8" ry="8"/>
	<ellipse transform="matrix(0.3705 -0.9289 0.9289 0.3705 -20.5981 142.9977)" class="st0" cx="95.2" cy="86.7" rx="8" ry="8"/>
	<ellipse transform="matrix(0.3705 -0.9289 0.9289 0.3705 2.7778 75.2538)" class="st0" cx="56.9" cy="35.6" rx="8" ry="8"/>
	<line class="st0" x1="90.4" y1="80.3" x2="62.6" y2="43.2"/>
	<line class="st0" x1="44.8" y1="86.6" x2="87.2" y2="86.6"/>
	<line class="st0" x1="53.4" y1="44.3" x2="39.8" y2="78.6"/>
	<g>
		<path class="st1" d="M85,6c43.6,0,79,35.4,79,79s-35.4,79-79,79S6,128.6,6,85S41.4,6,85,6 M85,0C38.1,0,0,38.1,0,85s38.1,85,85,85
			s85-38.1,85-85S131.9,0,85,0L85,0z"/>
	</g>
	<line class="st0" x1="106.3" y1="58.9" x2="98.2" y2="79.3"/>
	<line class="st0" x1="66" y1="37.3" x2="96.8" y2="43.2"/>
	<line class="st0" x1="73.6" y1="126.4" x2="105.2" y2="132.2"/>
	<line class="st0" x1="40.7" y1="93" x2="50.1" y2="109.6"/>
	<ellipse transform="matrix(0.3705 -0.9289 0.9289 0.3705 27.3739 132.4639)" class="st0" cx="111.4" cy="46" rx="16" ry="16"/>
</g>
</svg>
