<?xml version="1.0" encoding="utf-8"?>
<!-- Generator: Adobe Illustrator 21.0.0, SVG Export Plug-In . SVG Version: 6.00 Build 0)  -->
<svg version="1.1" id="Layer_1" xmlns="http://www.w3.org/2000/svg" xmlns:xlink="http://www.w3.org/1999/xlink" x="0px" y="0px"
	 viewBox="0 0 170 170" style="enable-background:new 0 0 170 170;" xml:space="preserve">
<style type="text/css">
	.st0{fill:#FFFFFF;}
	.st1{fill:none;stroke:#FFFFFF;stroke-width:6;stroke-miterlimit:10;}
</style>
<g>
	<g>
		<path class="st0" d="M85,6c43.6,0,79,35.4,79,79s-35.4,79-79,79S6,128.6,6,85S41.4,6,85,6 M85,0C38.1,0,0,38.1,0,85s38.1,85,85,85
			s85-38.1,85-85S131.9,0,85,0L85,0z"/>
	</g>
	<path class="st1" d="M126.7,59"/>
	<path class="st1" d="M118.4,48.9"/>
	<path class="st1" d="M130.4,66.2c2.4,5.8,3.7,12.1,3.7,18.8c0,27.1-22,49.1-49.1,49.1s-49.1-22-49.1-49.1s22-49.1,49.1-49.1
		c12.9,0,24.6,5,33.4,13.1"/>
	<polyline class="st1" points="116.7,34.5 118.4,49.1 103.7,50.9 	"/>
</g>
</svg>
