<?xml version="1.0" encoding="utf-8"?>
<!-- Generator: Adobe Illustrator 21.0.0, SVG Export Plug-In . SVG Version: 6.00 Build 0)  -->
<svg version="1.1" id="Layer_1" xmlns="http://www.w3.org/2000/svg" xmlns:xlink="http://www.w3.org/1999/xlink" x="0px" y="0px"
	 viewBox="0 0 170 170" style="enable-background:new 0 0 170 170;" xml:space="preserve">
<style type="text/css">
	.st0{fill:#FFFFFF;}
	.st1{fill:none;stroke:#FFFFFF;stroke-width:6;stroke-miterlimit:10;}
</style>
<g>
	<g>
		<path class="st0" d="M85,6c43.6,0,79,35.4,79,79s-35.4,79-79,79S6,128.6,6,85S41.4,6,85,6 M85,0C38.1,0,0,38.1,0,85s38.1,85,85,85
			s85-38.1,85-85S131.9,0,85,0L85,0z"/>
	</g>
	<g>
		<path class="st0" d="M85,25.9l0,6h0c16.1,0,29.6,13,30.1,29.1c0.2,6.6-1.7,14.5-4.6,19.1C103,91.9,99,102.7,98.1,114.2H71.9
			c-0.9-11.7-4.8-22.4-12.2-33.9C56.9,76,54.9,68.4,54.9,62c0-16.4,13.4-29.9,29.8-30.1l0.3,0L85,25.9 M85,25.9c-0.1,0-0.3,0-0.4,0
			C64.8,26.2,48.9,42.2,48.9,62c0,7.2,2.1,15.9,5.7,21.5C62,95,66.1,106.3,66.1,119.9v0.4h37.8v-0.4c0-13.7,4.3-24.9,11.6-36.5
			c3.8-5.9,5.8-15,5.6-22.6C120.4,41.5,104.3,25.9,85,25.9L85,25.9z"/>
	</g>
	<line class="st1" x1="66.1" y1="128.5" x2="103.9" y2="128.5"/>
	<line class="st1" x1="66.1" y1="139.5" x2="103.9" y2="139.5"/>
	<path class="st1" d="M92.7,139.5c0,4.2-3.4,7.7-7.7,7.7s-7.7-3.4-7.7-7.7"/>
	<path class="st1" d="M77.3,116.8V76.7c0-4.2,3.4-7.7,7.7-7.7h0c4.2,0,7.7,3.4,7.7,7.7v40.2"/>
</g>
</svg>
