<?xml version="1.0" encoding="utf-8"?>
<!-- Generator: Adobe Illustrator 21.0.0, SVG Export Plug-In . SVG Version: 6.00 Build 0)  -->
<svg version="1.1" id="Layer_1" xmlns="http://www.w3.org/2000/svg" xmlns:xlink="http://www.w3.org/1999/xlink" x="0px" y="0px"
	 viewBox="0 0 170 170" style="enable-background:new 0 0 170 170;" xml:space="preserve">
<style type="text/css">
	.st0{fill:#FFFFFF;}
	.st1{fill:none;stroke:#FFFFFF;stroke-width:6;stroke-miterlimit:10;}
</style>
<g>
	<g>
		<path class="st0" d="M85,6c43.6,0,79,35.4,79,79s-35.4,79-79,79S6,128.6,6,85S41.4,6,85,6 M85,0C38.1,0,0,38.1,0,85s38.1,85,85,85
			s85-38.1,85-85S131.9,0,85,0L85,0z"/>
	</g>
	<ellipse transform="matrix(0.3705 -0.9289 0.9289 0.3705 -4.1793 118.0533)" class="st1" cx="85" cy="62.1" rx="16" ry="16"/>
	<path class="st1" d="M126.5,64.3c0-22.9-18.6-41.5-41.5-41.5S43.5,41.4,43.5,64.3c0,35.8,41.5,82.2,41.5,82.2
		S126.5,100.1,126.5,64.3z"/>
</g>
</svg>
