<?xml version="1.0" encoding="utf-8"?>
<!-- Generator: Adobe Illustrator 21.0.0, SVG Export Plug-In . SVG Version: 6.00 Build 0)  -->
<svg version="1.1" id="Layer_1" xmlns="http://www.w3.org/2000/svg" xmlns:xlink="http://www.w3.org/1999/xlink" x="0px" y="0px"
	 viewBox="0 0 170 170" style="enable-background:new 0 0 170 170;" xml:space="preserve">
<style type="text/css">
	.st0{fill:#FFFFFF;}
	.st1{fill:none;stroke:#FFFFFF;stroke-width:6;stroke-miterlimit:10;}
</style>
<g>
	<g>
		<path class="st0" d="M85,6c43.6,0,79,35.4,79,79s-35.4,79-79,79S6,128.6,6,85S41.4,6,85,6 M85,0C38.1,0,0,38.1,0,85s38.1,85,85,85
			s85-38.1,85-85S131.9,0,85,0L85,0z"/>
	</g>
	<circle class="st1" cx="85" cy="135.7" r="8"/>
	<path class="st1" d="M85,30L85,30c-4.4,0-8,3.6-8,8v66c0,4.4,3.6,8,8,8h0c4.4,0,8-3.6,8-8V38C93,33.6,89.4,30,85,30z"/>
</g>
</svg>
