<?xml version="1.0" encoding="utf-8"?>
<!-- Generator: Adobe Illustrator 21.0.0, SVG Export Plug-In . SVG Version: 6.00 Build 0)  -->
<svg version="1.1" id="Layer_1" xmlns="http://www.w3.org/2000/svg" xmlns:xlink="http://www.w3.org/1999/xlink" x="0px" y="0px"
	 viewBox="0 0 170 170" style="enable-background:new 0 0 170 170;" xml:space="preserve">
<style type="text/css">
	.st0{fill:#FFFFFF;}
	.st1{fill:none;stroke:#FFFFFF;stroke-width:6;stroke-miterlimit:10;}
</style>
<g>
	<g>
		<path class="st0" d="M85,6c43.6,0,79,35.4,79,79s-35.4,79-79,79S6,128.6,6,85S41.4,6,85,6 M85,0C38.1,0,0,38.1,0,85s38.1,85,85,85
			s85-38.1,85-85S131.9,0,85,0L85,0z"/>
	</g>
	<rect x="50.9" y="34.1" class="st1" width="68.1" height="101.7"/>
	<line class="st1" x1="125.1" y1="51" x2="45.1" y2="51"/>
	<path class="st1" d="M118.1,91.3c0,0-3.2,10.6-20.2,27.6s-47,17-47,17"/>
	<path class="st1" d="M50.9,62.1c0,0,7.7,11.1,25.5,11.1s41.8-22.4,41.8-22.4"/>
</g>
</svg>
