<?xml version="1.0" encoding="utf-8"?>
<!-- Generator: Adobe Illustrator 21.0.0, SVG Export Plug-In . SVG Version: 6.00 Build 0)  -->
<svg version="1.1" id="Layer_1" xmlns="http://www.w3.org/2000/svg" xmlns:xlink="http://www.w3.org/1999/xlink" x="0px" y="0px"
	 viewBox="0 0 792 531.3" style="enable-background:new 0 0 792 531.3;" xml:space="preserve">
<style type="text/css">
	.st0{fill:#FFFFFF;}
	.st1{fill:none;stroke:#000000;stroke-width:11;stroke-miterlimit:10;}
	.st2{fill:none;stroke:#FFFFFF;stroke-width:10;stroke-miterlimit:10;}
	.st3{stroke:#000000;stroke-width:2;stroke-miterlimit:10;}
	.st4{fill:none;stroke:#000000;stroke-width:13;stroke-miterlimit:10;}
	.st5{fill:none;stroke:#000000;stroke-width:16;stroke-miterlimit:10;}
	.st6{fill:none;stroke:#FFFFFF;stroke-width:16;stroke-miterlimit:10;}
	.st7{stroke:#000000;stroke-width:8;stroke-miterlimit:10;}
	.st8{stroke:#000000;stroke-width:6;stroke-miterlimit:10;}
	.st9{fill:none;stroke:#FFFFFF;stroke-width:14;stroke-miterlimit:10;}
	.st10{fill:none;}
	.st11{fill:none;stroke:#000000;stroke-width:24;stroke-miterlimit:10;}
</style>
<path class="st0" d="M57.1,272.8h46.3v83.5h82v-83.5h46.3v204.3h-46.3v-84.3h-82v84.3H57.1V272.8z"/>
<path class="st0" d="M326.6,272.8h60.3l66.3,204.3h-48.3l-14-45.4h-74l-14,45.4h-43.4L326.6,272.8z M326.9,398.9h54L354,310.6
	L326.9,398.9z"/>
<path class="st0" d="M482.3,272.8h46.6v204.3h-46.6V272.8z"/>
<path class="st0" d="M571.7,272.8h73.2c48.3,0,78.9,19.7,78.9,62v1.1c0,30.9-18,47.2-42,54.3l54,86.9h-49.2l-48.9-78.9h-20v78.9h-46
	V272.8z M643.7,366.9c23.1,0,34.9-9.7,34.9-29.4v-1.1c0-20.9-12.6-28-34.9-28h-26v58.6H643.7z"/>
<g>
	<path class="st0" d="M792,532.1H0V0h792V532.1z M31,501.2h730V31H31V501.2z"/>
</g>
<path class="st0" d="M49.5,151.5v-2.1c0-55.6,39.5-94.3,94.1-94.3c41.1,0,77.8,18.9,82.2,64.6h-41.6c-3.6-21.7-17.8-31.5-40.1-31.5
	c-32,0-50.9,24-50.9,61.8v2.1c0,35.7,15.2,61.3,51.4,61.3c31,0,43.7-17.8,44.5-39h-41.6v-30.5h83v19.6c0,49.4-31.5,82.2-86.8,82.2
	C83.1,245.6,49.5,206.3,49.5,151.5z"/>
<path class="st0" d="M570.2,57.9h60.5c64.9,0,96.9,35.2,96.9,90.5v2.1c0,55.3-32.3,92.3-97.2,92.3h-60.2V57.9z M629.1,210.2
	c37.2,0,54.8-20.9,54.8-59.2v-2.1c0-38-16.3-58.4-55.3-58.4h-16.5v119.7H629.1z"/>
<g>
	<path class="st0" d="M232.1,250.7v-38.1c12.5,0,36.2-7.2,59.4-20.7c-14.6-20.5-22.7-45.7-22.7-73.9c0-41.3,23.4-68,59.7-68
		c28.4,0,58.7,17.9,58.7,68c0,30.3-15.2,56.5-36.6,77.4c17.6,10.1,39.9,15.6,65.7,15.6c3.1,0,6.2-0.3,9.3-1
		c-18.9-20-28.4-48.5-28.4-85.2c0-51.4,30.7-69.7,57.1-69.7c29.7,0,63.5,24.9,66.3,65.1c2,28.6-7.5,59.6-25.2,84.1
		c9.7,1.9,20.9,3,33.8,3.2l-0.5,38.1c-25.3-0.3-47-3.9-65.1-10.9c-14.7,9.4-30.9,14.4-47.3,14.4c-38.5,0-71.9-10.6-97.1-29.2
		C288,239.7,253.3,250.7,232.1,250.7z M454.3,93.2c-12.6,0-18.9,10.6-18.9,31.5c0,24.8,3.9,48.5,23.5,64.1
		c15.9-18,25.2-43.7,23.6-66.1C481.2,103.7,465,93.2,454.3,93.2z M328.5,88.1c-5.3,0-21.5,0-21.5,29.8c0,19.9,5.3,37.3,15.1,51.5
		c13.7-12.9,26.9-30.7,26.9-51.5C349,88.1,335.7,88.1,328.5,88.1z"/>
</g>
</svg>
